<?xml version="1.0" standalone="no"?>
<!DOCTYPE svg PUBLIC "-//W3C//DTD SVG 20010904//EN"
 "http://www.w3.org/TR/2001/REC-SVG-20010904/DTD/svg10.dtd">
<svg version="1.0" xmlns="http://www.w3.org/2000/svg"
 width="2250.000000pt" height="2250.000000pt" viewBox="0 0 2250.000000 2250.000000"
 preserveAspectRatio="xMidYMid meet">

<g transform="translate(0.000000,2250.000000) scale(0.100000,-0.100000)"
fill="#000000" stroke="none">
<path d="M10610 20053 c-36 -8 -231 -53 -435 -99 -1241 -284 -3126 -756 -4887
-1226 l-238 -63 0 -83 c0 -75 2 -83 18 -78 41 12 919 241 1540 402 803 207
2208 559 2832 709 552 132 1214 285 1235 285 12 0 15 15 15 85 0 47 -3 85 -7
84 -5 0 -37 -8 -73 -16z"/>
<path d="M10270 19315 c-1196 -276 -2267 -542 -3970 -986 -316 -83 -710 -186
-875 -230 -165 -44 -317 -84 -337 -90 l-37 -10 -3 -71 -3 -71 -265 -73 c-146
-40 -440 -121 -654 -180 l-388 -108 6 -230 c22 -754 64 -1343 151 -2126 162
-1456 446 -3070 836 -4745 121 -519 205 -834 289 -1079 30 -89 30 -91 30 -305
l-1 -216 -20 50 c-152 376 -296 841 -410 1323 l-43 182 -239 0 -239 0 7 -32
c24 -113 140 -595 170 -708 160 -593 362 -1124 651 -1706 l124 -251 0 -142 0
-143 112 -186 c333 -555 730 -1088 1244 -1668 199 -224 738 -766 983 -989 775
-701 1635 -1346 2726 -2047 173 -111 513 -323 563 -352 9 -5 12 12 12 72 l0
80 -77 48 c-144 89 -556 356 -798 517 -639 427 -1216 852 -1689 1246 l-139
116 361 3 360 2 199 -148 c510 -381 1028 -736 1636 -1118 l147 -93 0 89 c0 50
2 90 5 90 2 0 128 -77 280 -171 l275 -170 173 107 c1423 890 2325 1548 3187
2328 215 195 698 678 880 881 653 728 1148 1448 1535 2230 325 658 496 1143
698 1985 613 2553 974 5018 1033 7050 l6 226 -410 112 c-2320 634 -5348 1398
-6890 1738 l-212 46 -268 -57 c-147 -32 -273 -60 -279 -62 -10 -4 -13 13 -13
66 0 39 -3 71 -7 70 -5 0 -190 -42 -413 -94z m239 -2173 c64 -34 87 -110 55
-178 -20 -43 -40 -53 -174 -93 -307 -91 -634 -246 -915 -434 -1247 -833 -2121
-2490 -2309 -4377 -30 -297 -38 -467 -38 -810 0 -343 8 -513 38 -810 173
-1738 928 -3286 2034 -4175 223 -179 450 -323 702 -445 327 -157 630 -249 983
-296 183 -24 503 -25 650 -1 240 39 580 136 835 237 182 72 292 122 283 130
-4 4 -33 16 -63 25 -73 24 -254 102 -360 155 -140 70 -236 127 -415 246 -969
643 -1742 1752 -1966 2818 l-23 108 -30 -6 c-17 -3 -83 -16 -146 -30 -121 -26
-284 -46 -379 -46 -106 0 -167 57 -158 148 9 82 71 122 189 122 98 0 229 21
439 69 97 23 189 41 205 41 63 0 124 -64 124 -129 0 -55 50 -291 95 -448 122
-424 357 -900 636 -1289 269 -374 639 -754 994 -1021 385 -289 838 -506 1210
-582 90 -18 103 -24 133 -55 27 -30 32 -43 32 -83 0 -90 -13 -100 -273 -227
-607 -297 -1115 -446 -1582 -463 -615 -22 -1264 156 -1840 505 -1220 739
-2121 2179 -2469 3947 -145 740 -185 1573 -110 2350 209 2193 1303 4070 2819
4840 182 93 416 187 591 239 138 41 157 42 203 18z m1874 -81 c1128 -416 2075
-1405 2662 -2780 317 -743 502 -1530 577 -2451 16 -205 16 -955 0 -1160 -103
-1269 -419 -2305 -998 -3271 -83 -138 -98 -158 -134 -174 -39 -17 -44 -17
-138 -1 -354 62 -695 208 -1072 459 -567 379 -1149 972 -1431 1460 -44 75 -59
111 -59 140 0 109 113 173 201 114 19 -12 45 -43 58 -67 203 -381 686 -908
1160 -1269 369 -280 709 -459 1029 -542 62 -16 117 -29 122 -29 8 0 84 122
163 260 55 98 208 412 267 550 603 1405 749 3083 405 4635 -357 1610 -1193
2909 -2310 3590 -152 93 -424 224 -580 280 -180 64 -196 74 -219 128 -19 44
-19 47 -1 92 21 57 62 85 123 85 26 0 93 -19 175 -49z m-808 -787 c311 -30
596 -90 877 -184 147 -50 318 -121 393 -163 68 -39 74 -114 11 -144 -33 -15
-35 -15 -134 30 -415 191 -856 294 -1377 322 -195 11 -528 -20 -805 -75 -358
-71 -709 -201 -1003 -373 -50 -30 -100 -57 -109 -60 -29 -10 -75 12 -88 43
-28 68 3 96 255 226 401 207 830 329 1330 378 272 27 363 27 650 0z m-30 -704
c338 -24 635 -81 943 -182 827 -269 1539 -809 2056 -1559 78 -113 87 -143 56
-182 -17 -21 -30 -27 -61 -27 -36 0 -43 4 -72 47 -248 357 -501 642 -778 874
-577 486 -1243 772 -2004 861 -144 17 -626 17 -770 0 -881 -102 -1640 -466
-2255 -1082 -286 -286 -496 -570 -697 -945 -54 -101 -80 -122 -130 -104 -30
10 -53 44 -53 76 0 41 193 375 323 558 260 367 624 731 977 976 716 497 1617
749 2465 689z m141 -755 c390 -41 683 -124 1019 -290 415 -204 711 -445 1264
-1029 344 -363 505 -502 690 -594 51 -26 100 -57 108 -69 31 -47 -9 -113 -69
-113 -44 0 -215 94 -333 182 -112 84 -266 234 -715 694 -135 138 -294 293
-354 344 -519 441 -990 648 -1636 721 -158 18 -558 15 -715 -5 -436 -55 -800
-176 -1168 -386 -558 -318 -1063 -834 -1459 -1490 -282 -468 -516 -1037 -598
-1455 -17 -89 -26 -114 -46 -132 -33 -30 -69 -29 -101 3 -23 23 -25 31 -20 82
10 92 73 334 137 522 273 810 773 1600 1344 2119 575 523 1230 826 1946 900
146 15 547 12 706 -4z m134 -869 c683 -87 1206 -339 1670 -806 153 -155 276
-301 510 -610 271 -358 388 -480 527 -546 74 -35 189 -44 276 -21 72 19 110 9
127 -34 10 -23 10 -35 0 -58 -15 -36 -62 -57 -166 -72 -213 -32 -426 73 -634
313 -39 46 -161 200 -270 343 -244 321 -347 441 -531 620 -348 339 -709 538
-1174 650 -256 62 -468 85 -773 85 -1028 0 -1878 -451 -2500 -1327 -511 -719
-829 -1800 -798 -2708 21 -610 153 -1201 408 -1825 103 -252 107 -264 88 -298
-21 -37 -71 -50 -105 -28 -29 19 -47 57 -142 295 -295 743 -439 1515 -403
2172 53 986 412 1982 962 2669 571 713 1310 1114 2208 1200 138 13 572 4 720
-14z m75 -751 c489 -77 904 -305 1254 -689 157 -171 257 -304 511 -676 84
-124 189 -271 233 -328 215 -276 403 -383 599 -340 105 23 173 51 277 114 76
46 97 54 121 49 50 -11 75 -68 50 -115 -13 -25 -160 -113 -249 -150 -215 -88
-412 -78 -598 31 -71 42 -259 226 -340 334 -33 44 -140 196 -237 338 -280 410
-399 559 -590 744 -338 328 -696 496 -1155 544 -227 23 -572 2 -816 -52 -968
-213 -1765 -942 -2081 -1906 -102 -314 -142 -593 -151 -1060 -13 -685 82
-1239 314 -1828 116 -294 239 -527 428 -810 195 -291 436 -574 679 -795 138
-125 153 -152 119 -199 -15 -19 -31 -27 -60 -29 -38 -3 -45 2 -159 106 -261
237 -528 551 -729 857 -409 621 -645 1295 -732 2085 -21 197 -24 758 -5 965
46 495 167 908 373 1281 489 883 1347 1447 2346 1544 128 12 481 4 598 -15z
m-217 -645 c390 -42 741 -216 1061 -524 182 -177 331 -363 611 -766 198 -285
259 -367 366 -490 325 -375 603 -402 1013 -98 112 83 141 93 182 59 17 -13 23
-29 23 -56 0 -33 -7 -44 -44 -77 -25 -22 -88 -68 -141 -103 -354 -239 -654
-246 -948 -24 -151 113 -273 261 -586 709 -98 140 -214 302 -258 360 -467 610
-894 859 -1474 860 -452 0 -910 -164 -1273 -457 -173 -139 -368 -363 -481
-550 -227 -375 -320 -750 -350 -1403 -11 -265 -14 -274 -85 -274 -65 0 -74 23
-74 183 0 371 63 818 156 1100 203 621 677 1138 1268 1386 335 140 708 200
1034 165z m32 -745 c232 -35 438 -124 638 -274 238 -180 429 -406 782 -926
220 -323 315 -449 429 -568 222 -231 405 -303 627 -247 154 39 304 126 492
284 85 71 109 86 137 86 38 0 75 -37 75 -74 0 -32 -21 -57 -123 -142 -498
-418 -913 -432 -1298 -43 -125 126 -216 247 -459 604 -347 511 -534 732 -765
906 -184 138 -354 210 -575 244 -122 19 -212 19 -351 -1 -382 -53 -673 -193
-900 -432 -137 -144 -253 -337 -304 -507 -44 -147 -102 -520 -121 -778 -7
-104 -23 -131 -77 -131 -22 0 -45 8 -58 20 -21 18 -21 24 -16 154 11 252 85
694 140 837 214 554 671 902 1302 992 98 14 323 12 425 -4z m55 -674 c135 -39
243 -96 376 -201 195 -154 355 -363 744 -973 404 -633 684 -866 1043 -867 187
0 422 82 644 226 78 50 125 57 158 24 22 -22 26 -60 10 -90 -13 -24 -143 -106
-265 -167 -172 -87 -305 -128 -457 -142 -296 -28 -556 76 -804 323 -162 162
-275 318 -654 908 -322 501 -568 737 -851 814 -97 27 -279 25 -388 -4 -336
-91 -533 -323 -613 -724 -31 -159 -31 -460 0 -663 94 -603 376 -1246 790
-1802 500 -670 1160 -1152 1852 -1354 144 -42 170 -58 170 -110 0 -40 -32 -69
-76 -69 -46 0 -215 49 -369 107 -496 187 -982 521 -1377 944 -793 849 -1261
2024 -1154 2891 65 521 349 859 795 943 108 21 333 13 426 -14z m16 -803 c133
-66 281 -191 417 -352 104 -125 183 -233 362 -496 254 -374 410 -574 537 -691
372 -340 735 -376 1250 -124 73 36 139 65 147 65 7 0 25 -9 40 -21 20 -16 26
-29 26 -59 0 -48 -17 -62 -153 -129 -134 -66 -239 -105 -367 -139 -97 -25
-119 -27 -290 -26 -171 0 -191 2 -273 27 -195 60 -354 162 -532 341 -140 141
-234 260 -409 516 -192 281 -338 486 -413 580 -149 187 -338 348 -451 385
-143 47 -303 -28 -370 -174 -23 -49 -26 -68 -25 -151 4 -453 371 -1103 972
-1724 404 -417 805 -744 1222 -994 124 -74 379 -196 483 -231 109 -36 126 -49
126 -98 0 -82 -55 -92 -207 -38 -728 263 -1747 1122 -2305 1945 -223 328 -373
651 -423 910 -22 118 -30 273 -16 345 25 133 119 263 232 321 92 46 126 54
240 51 99 -2 110 -4 180 -39z m-2327 -1452 c15 -14 29 -45 36 -82 7 -32 32
-127 56 -210 257 -894 822 -1674 1559 -2155 159 -104 154 -100 161 -134 8 -46
-26 -85 -75 -85 -65 0 -366 208 -603 417 -577 509 -1023 1249 -1227 2037 -39
149 -40 188 -5 215 35 27 69 27 98 -3z"/>
<path d="M17911 10293 c-24 -111 -142 -579 -172 -683 -90 -311 -234 -714 -361
-1010 -654 -1522 -1736 -2883 -3309 -4164 -134 -110 -251 -205 -259 -213 -12
-11 44 -13 347 -13 l361 0 108 91 c546 458 1166 1076 1609 1604 1001 1195
1664 2444 2010 3786 42 165 155 640 155 653 0 3 -107 6 -238 6 l-239 0 -12
-57z"/>
</g>
</svg>
